<svg xmlns="http://www.w3.org/2000/svg" viewBox="0 0 120 120" role="img" aria-label="GCash">
  <rect width="120" height="120" rx="18" fill="#1677f2"/>
  <circle cx="56" cy="60" r="34" fill="#0a49c6"/>
  <circle cx="56" cy="60" r="26" fill="#ffffff"/>
  <path d="M56 42a18 18 0 1 0 0 36c8.2 0 15.1-5.5 17.1-13H58v-8h24c.2 1 .3 2 .3 3 0 13.2-10.8 24-24.3 24C44.8 84 34 73.2 34 60s10.8-24 24-24c6.5 0 12.4 2.5 16.8 6.6l-5.7 5.8C65.7 44.5 61.1 42 56 42z" fill="#1677f2"/>
  <rect x="86" y="42" width="8" height="36" rx="4" fill="#4cb3ff"/>
  <rect x="98" y="47" width="8" height="26" rx="4" fill="#4cb3ff"/>
</svg>
